<svg xmlns="http://www.w3.org/2000/svg" viewBox="0 0 1200 720" role="img" aria-labelledby="title desc"><title id="title">数据指挥中心作品封面</title><desc id="desc">原创深蓝金融数据仪表盘插画</desc><defs><linearGradient id="b" x1="0" y1="0" x2="1" y2="1"><stop stop-color="#020a22"/><stop offset=".55" stop-color="#0b3272"/><stop offset="1" stop-color="#117bd1"/></linearGradient></defs><rect width="1200" height="720" fill="url(#b)"/><g fill="#071b3d" stroke="#1a87e8" stroke-width="3"><rect x="80" y="72" width="1040" height="576" rx="28"/><rect x="118" y="122" width="640" height="310" rx="15"/><rect x="790" y="122" width="290" height="140" rx="15"/><rect x="790" y="292" width="290" height="140" rx="15"/><rect x="118" y="466" width="962" height="132" rx="15"/></g><g stroke="#264f83" opacity=".8"><path d="M118 200h640M118 278h640M118 356h640M278 122v310M438 122v310M598 122v310"/></g><path d="m138 363 89-72 76 39 96-132 83 62 111-105 145 84" fill="none" stroke="#5ce9ff" stroke-width="9"/><path d="m138 390 108-42 91 15 120-85 87 42 117-89 77 29" fill="none" stroke="#24e191" stroke-width="6"/><g fill="#1688f2"><rect x="827" y="172" width="210" height="26" rx="10"/><rect x="827" y="342" width="155" height="26" rx="10"/><rect x="157" y="516" width="125" height="42" rx="10"/><rect x="310" y="516" width="205" height="42" rx="10"/><rect x="543" y="516" width="155" height="42" rx="10"/></g></svg>
