<svg xmlns="http://www.w3.org/2000/svg" viewBox="0 0 1200 720" role="img" aria-labelledby="title desc"><title id="title">机器人协作作品封面</title><desc id="desc">原创友好机器人与协作节点插画</desc><defs><linearGradient id="b" x1="0" y1="0" x2="1" y2="1"><stop stop-color="#eaf7ff"/><stop offset=".5" stop-color="#79c6ff"/><stop offset="1" stop-color="#1869e8"/></linearGradient><filter id="g"><feGaussianBlur stdDeviation="9" result="b"/><feMerge><feMergeNode in="b"/><feMergeNode in="SourceGraphic"/></feMerge></filter></defs><rect width="1200" height="720" fill="url(#b)"/><g stroke="#e9fbff" stroke-width="4" opacity=".65"><path d="M139 171 360 284l242-172 237 181 218-140M139 171l75 330 388 81 330-131 125-298M360 284l242 298 237-289"/></g><g fill="#fff"><circle cx="139" cy="171" r="18"/><circle cx="360" cy="284" r="18"/><circle cx="602" cy="112" r="18"/><circle cx="839" cy="293" r="18"/><circle cx="1057" cy="153" r="18"/></g><g transform="translate(410 202)" filter="url(#g)"><rect x="74" y="60" width="232" height="205" rx="76" fill="#f5fdff"/><rect x="108" y="95" width="164" height="91" rx="37" fill="#104d9e"/><circle cx="153" cy="139" r="14" fill="#6fe8ff"/><circle cx="227" cy="139" r="14" fill="#6fe8ff"/><path d="M146 219h88" stroke="#1880ee" stroke-width="12" stroke-linecap="round"/><path d="M190 60V15m-18 0h36M74 224 18 298m288-74 56 74M118 265v104m144-104v104" fill="none" stroke="#f5fdff" stroke-width="32" stroke-linecap="round"/></g></svg>
